<svg xmlns="http://www.w3.org/2000/svg" viewBox="0 0 160 124" role="img" aria-labelledby="title desc">
  <title>Account navigation emblem</title>
  <desc>Medieval parchment emblem for the account storefront navigation link.</desc>
  <defs>
    <linearGradient id="bg" x1="0" x2="0" y1="0" y2="1">
      <stop offset="0%" stop-color="#fcf2d9"/>
      <stop offset="100%" stop-color="#dcc08e"/>
    </linearGradient>
    <linearGradient id="trim" x1="0" x2="1" y1="0" y2="1">
      <stop offset="0%" stop-color="#71411a"/>
      <stop offset="100%" stop-color="#48210d"/>
    </linearGradient>
    <filter id="shadow" x="-20%" y="-20%" width="140%" height="160%">
      <feDropShadow dx="0" dy="6" stdDeviation="5" flood-color="#24130a" flood-opacity="0.28"/>
    </filter>
  </defs>
  <g filter="url(#shadow)">
    <path d="M26 18h108l-7 22 7 22H26l7-22-7-22Z" fill="url(#bg)" stroke="url(#trim)" stroke-width="4"/>
    <path d="M45 62h70l12 10-12 34H45L33 72l12-10Z" fill="url(#bg)" stroke="url(#trim)" stroke-width="4"/>
    <path d="M39 26h82" stroke="#f5dfae" stroke-width="2" opacity="0.85"/>
    <path d="M50 33h60" stroke="#8c5a2b" stroke-width="1.5" opacity="0.45"/>
    <path d="M24 40c7 2 12 7 15 14-7 1-13 5-18 11 0-10 1-17 3-25Z" fill="#6c3716" opacity="0.95"/>
    <path d="M136 40c-7 2-12 7-15 14 7 1 13 5 18 11 0-10-1-17-3-25Z" fill="#6c3716" opacity="0.95"/>
    <circle cx="80" cy="26" r="6" fill="#8e1920" stroke="#f2d89f" stroke-width="2"/>
    <path d="M54 79c18-8 34-8 52 0" stroke="#a26c2f" stroke-width="2" opacity="0.4" fill="none"/>
    
    <g transform="translate(0 3)" fill="none" stroke="#5d2d12" stroke-linecap="round" stroke-linejoin="round">
      <circle cx="80" cy="69" r="12" stroke-width="5"/>
      <path d="M57 98c5-12 14-18 23-18s18 6 23 18" stroke-width="5"/>
      <path d="M69 67c3-2 7-4 11-4" stroke="#8e1920" stroke-width="3"/>
    </g>
  </g>
</svg>